<?xml version="1.0" encoding="UTF-8"?><svg id="Layer_1" xmlns="http://www.w3.org/2000/svg" viewBox="0 0 612 792"><defs><style>.cls-1{fill:#fff;}</style></defs><g><polygon class="cls-1" points="308.05 174.94 281.74 115.33 156.77 456.63 308.05 174.94"/><polygon class="cls-1" points="307.63 426.89 422.59 434.41 335.03 236.04 307.63 426.89"/><polygon class="cls-1" points="99.07 614.21 82.47 659.55 132.38 603.49 99.07 614.21"/><polygon class="cls-1" points="381.92 523.22 529.53 676.67 451.87 500.72 381.92 523.22"/></g><polygon class="cls-1" points="424.63 438.3 155.87 474.47 441.44 474.47 424.63 438.3"/><polygon class="cls-1" points="107.43 659.55 158.02 603.49 280.84 603.49 280.84 659.55 107.43 659.55"/><polygon class="cls-1" points="263.23 115.33 241.32 171.39 82.47 171.39 82.47 115.33 263.23 115.33"/></svg>