<?xml version="1.0" encoding="UTF-8"?>
<svg xmlns="http://www.w3.org/2000/svg" viewBox="0 0 1232 924">
  <defs>
    <style>
      .cls-1 {
        fill: #455149;
      }

      .cls-2 {
        fill: #151b23;
      }

      .cls-3 {
        fill: #4d4d4d;
      }

      .cls-3:hover{
        cursor:pointer;
        fill:yellow;
      }

      .cls-4 {
        fill: #35729a;
      }

      .cls-5 {
        fill: none;
        stroke: #e6e6e6;
        stroke-miterlimit: 10;
      }

      .cls-4:hover{
        cursor:pointer;
        fill:yellow;
      }

      .cls-6 {
        fill: #ccd0cd;
      }

      .cls-6:hover{
        cursor:pointer;
        fill:yellow;
      }

      .cls-7 {
        fill: #9da39b;
      }

      .cls-8 {
        fill: #008340;
      }

      

      .cls-9 {
        fill: #1a1a1a;
      }

      .cls-10 {
        fill: #637781;
      }

      .cls-10:hover{
        cursor:pointer;
        fill:yellow;
      }

      .cls-11 {
        fill: #041421;
      }

      
    </style>
  </defs>
  <g id="Motherboard">
    <path class="cls-8" d="m703.45,57l-55.45,1c-.99-.88-2.66-2.12-5-3-2-.75-3.77-.95-5-1l-403,8c-1.93.25-4.58.91-6,3-1.19,1.75-1.01,3.76-1,4,.26,6.98-61.83,788.17-58,808,.98,5.06,4,8,4,8s2.03,1.98,5,3c12.14,4.19,881-16,889-16,6,0,70.3-86.3,76-92,1-1,20-10,22-12,1-1-22-142-23-144-1.3-2.61-7.39-8.98-13-8-5.55.96-11,8-12,8s-1.9-3.15-5-5c-2.94-1.76-6.21-1.26-8-1,0,0-22.46,3.22-49,0-1.49-.18-4.63-.63-7-3-2.53-2.53-2.87-5.94-3-7-1.11-9.26-14.27-75.06-14-94,.02-1.3.13-4.06,2-6,1.6-1.66,3.7-1.91,4-2,9.17-2.68-48-328-48-330,0-1,8,0,9,0,0,0-3-20-3-21h-13c-1,0-11-69-11-71,0-.86,2,0,3,0,0,0,0-7-1-7s-1.48.43-2,0c-.61-.5-.27-1.9,0-3,.51-2.1,1.07-2.13,1-3-.15-1.93-2.92-2.31-3-4-.06-1.29,1.53-1.46,2-3,.67-2.23-2.12-3.63-4-8-1.6-3.71-.49-4.8-2-7-1.05-1.53-3.17-3.33-8-4"/>
  </g>
  <g id="VPU">
    <path class="cls-9" d="m573,625c0-1-3.27-28.83-2-114,.34-.61,1.24-2.01,3-3,1.7-.95,3.3-1.01,4-1l120-2c.22-.03,1.81-.18,3,1,.76.76.95,1.66,1,2l6,116c-.31.49-.93,1.32-2,2-1.23.78-2.41.95-3,1l-123,3c-1,0-1.17.41-4-1-2-1-3-3.94-3-4Z"/>
    <path class="cls-5" d="m574.42,622.39c-1.09-.01-2.61.15-3.98,1.07-1.03.69-1.42,1.43-1.97,2.03-.99,1.11-2.91,2.22-6.97,2.11"/>
    <path class="cls-5" d="m574.39,620.39c-1.09-.01-2.61.15-3.98,1.07-1.03.69-1.42,1.43-1.97,2.03-.99,1.11-2.91,2.22-6.97,2.11"/>
    <path class="cls-5" d="m574.35,618.39c-1.09-.01-2.61.15-3.98,1.07-1.03.69-1.42,1.43-1.97,2.03-.99,1.11-2.91,2.22-6.97,2.11"/>
    <path class="cls-5" d="m574.32,616.39c-1.09-.01-2.61.15-3.98,1.07-1.03.69-1.42,1.43-1.97,2.03-.99,1.11-2.91,2.22-6.97,2.11"/>
    <path class="cls-5" d="m574.29,614.39c-1.09-.01-2.61.15-3.98,1.07-1.03.69-1.42,1.43-1.97,2.03-.99,1.11-2.91,2.22-6.97,2.11"/>
    <path class="cls-5" d="m574.26,612.39c-1.09-.01-2.61.15-3.98,1.07-1.03.69-1.42,1.43-1.97,2.03-.99,1.11-2.91,2.22-6.97,2.11"/>
    <path class="cls-5" d="m574.22,610.39c-1.09-.01-2.61.15-3.98,1.07-1.03.69-1.42,1.43-1.97,2.03-.99,1.11-2.91,2.22-6.97,2.11"/>
    <path class="cls-5" d="m574.19,608.39c-1.09-.01-2.61.15-3.98,1.07-1.03.69-1.42,1.43-1.97,2.03-.99,1.11-2.91,2.22-6.97,2.11"/>
    <path class="cls-5" d="m574.16,606.39c-1.09-.01-2.61.15-3.98,1.07-1.03.69-1.42,1.43-1.97,2.03-.99,1.11-2.91,2.22-6.97,2.11"/>
    <path class="cls-5" d="m574.13,604.39c-1.09-.01-2.61.15-3.98,1.07-1.03.69-1.42,1.43-1.97,2.03-.99,1.11-2.91,2.22-6.97,2.11"/>
    <path class="cls-5" d="m574.09,602.39c-1.09-.01-2.61.15-3.98,1.07-1.03.69-1.42,1.43-1.97,2.03-.99,1.11-2.91,2.22-6.97,2.11"/>
    <path class="cls-5" d="m574.06,600.39c-1.09-.01-2.61.15-3.98,1.07-1.03.69-1.42,1.43-1.97,2.03-.99,1.11-2.91,2.22-6.97,2.11"/>
    <path class="cls-5" d="m574.03,598.39c-1.09-.01-2.61.15-3.98,1.07-1.03.69-1.42,1.43-1.97,2.03-.99,1.11-2.91,2.22-6.97,2.11"/>
    <path class="cls-5" d="m574,596.39c-1.09-.01-2.61.15-3.98,1.07-1.03.69-1.42,1.43-1.97,2.03-.99,1.11-2.91,2.22-6.97,2.11"/>
    <path class="cls-5" d="m573.96,594.39c-1.09-.01-2.61.15-3.98,1.07-1.03.69-1.42,1.43-1.97,2.03-.99,1.11-2.91,2.22-6.97,2.11"/>
    <path class="cls-5" d="m573.93,592.39c-1.09-.01-2.61.15-3.98,1.07-1.03.69-1.42,1.43-1.97,2.03-.99,1.11-2.91,2.22-6.97,2.11"/>
    <path class="cls-5" d="m573.9,590.39c-1.09-.01-2.61.15-3.98,1.07-1.03.69-1.42,1.43-1.97,2.03-.99,1.11-2.91,2.22-6.97,2.11"/>
    <path class="cls-5" d="m573.87,588.39c-1.09-.01-2.61.15-3.98,1.07-1.03.69-1.42,1.43-1.97,2.03-.99,1.11-2.91,2.22-6.97,2.11"/>
    <path class="cls-5" d="m573.83,586.39c-1.09-.01-2.61.15-3.98,1.07-1.03.69-1.42,1.43-1.97,2.03-.99,1.11-2.91,2.22-6.97,2.11"/>
    <path class="cls-5" d="m573.8,584.39c-1.09-.01-2.61.15-3.98,1.07-1.03.69-1.42,1.43-1.97,2.03-.99,1.11-2.91,2.22-6.97,2.11"/>
    <path class="cls-5" d="m573.77,582.39c-1.09-.01-2.61.15-3.98,1.07-1.03.69-1.42,1.43-1.97,2.03-.99,1.11-2.91,2.22-6.97,2.11"/>
    <path class="cls-5" d="m573.74,580.39c-1.09-.01-2.61.15-3.98,1.07-1.03.69-1.42,1.43-1.97,2.03-.99,1.11-2.91,2.22-6.97,2.11"/>
    <path class="cls-5" d="m573.7,578.39c-1.09-.01-2.61.15-3.98,1.07-1.03.69-1.42,1.43-1.97,2.03-.99,1.11-2.91,2.22-6.97,2.11"/>
    <path class="cls-5" d="m573.67,576.39c-1.09-.01-2.61.15-3.98,1.07-1.03.69-1.42,1.43-1.97,2.03-.99,1.11-2.91,2.22-6.97,2.11"/>
    <path class="cls-5" d="m573.64,574.39c-1.09-.01-2.61.15-3.98,1.07-1.03.69-1.42,1.43-1.97,2.03-.99,1.11-2.91,2.22-6.97,2.11"/>
    <path class="cls-5" d="m573.6,572.39c-1.09-.01-2.61.15-3.98,1.07-1.03.69-1.42,1.43-1.97,2.03-.99,1.11-2.91,2.22-6.97,2.11"/>
    <path class="cls-5" d="m573.57,570.39c-1.09-.01-2.61.15-3.98,1.07-1.03.69-1.42,1.43-1.97,2.03-.99,1.11-2.91,2.22-6.97,2.11"/>
    <path class="cls-5" d="m573.54,568.39c-1.09-.01-2.61.15-3.98,1.07-1.03.69-1.42,1.43-1.97,2.03-.99,1.11-2.91,2.22-6.97,2.11"/>
    <path class="cls-5" d="m573.51,566.39c-1.09-.01-2.61.15-3.98,1.07-1.03.69-1.42,1.43-1.97,2.03-.99,1.11-2.91,2.22-6.97,2.11"/>
    <path class="cls-5" d="m573.47,564.39c-1.09-.01-2.61.15-3.98,1.07-1.03.69-1.42,1.43-1.97,2.03-.99,1.11-2.91,2.22-6.97,2.11"/>
    <path class="cls-5" d="m573.44,562.39c-1.09-.01-2.61.15-3.98,1.07-1.03.69-1.42,1.43-1.97,2.03-.99,1.11-2.91,2.22-6.97,2.11"/>
    <path class="cls-5" d="m573.41,560.39c-1.09-.01-2.61.15-3.98,1.07-1.03.69-1.42,1.43-1.97,2.03-.99,1.11-2.91,2.22-6.97,2.11"/>
    <path class="cls-5" d="m573.38,558.4c-1.09-.01-2.61.15-3.98,1.07-1.03.69-1.42,1.43-1.97,2.03-.99,1.11-2.91,2.22-6.97,2.11"/>
    <path class="cls-5" d="m573.34,556.4c-1.09-.01-2.61.15-3.98,1.07-1.03.69-1.42,1.43-1.97,2.03-.99,1.11-2.91,2.22-6.97,2.11"/>
    <path class="cls-5" d="m573.31,554.4c-1.09-.01-2.61.15-3.98,1.07-1.03.69-1.42,1.43-1.97,2.03-.99,1.11-2.91,2.22-6.97,2.11"/>
    <path class="cls-5" d="m573.28,552.4c-1.09-.01-2.61.15-3.98,1.07-1.03.69-1.42,1.43-1.97,2.03-.99,1.11-2.91,2.22-6.97,2.11"/>
    <path class="cls-5" d="m573.25,550.4c-1.09-.01-2.61.15-3.98,1.07-1.03.69-1.42,1.43-1.97,2.03-.99,1.11-2.91,2.22-6.97,2.11"/>
    <path class="cls-5" d="m573.21,548.4c-1.09-.01-2.61.15-3.98,1.07-1.03.69-1.42,1.43-1.97,2.03-.99,1.11-2.91,2.22-6.97,2.11"/>
    <path class="cls-5" d="m573.18,546.4c-1.09-.01-2.61.15-3.98,1.07-1.03.69-1.42,1.43-1.97,2.03-.99,1.11-2.91,2.22-6.97,2.11"/>
    <path class="cls-5" d="m573.15,544.4c-1.09-.01-2.61.15-3.98,1.07-1.03.69-1.42,1.43-1.97,2.03-.99,1.11-2.91,2.22-6.97,2.11"/>
    <path class="cls-5" d="m573.12,542.4c-1.09-.01-2.61.15-3.98,1.07-1.03.69-1.42,1.43-1.97,2.03-.99,1.11-2.91,2.22-6.97,2.11"/>
    <path class="cls-5" d="m573.08,540.4c-1.09-.01-2.61.15-3.98,1.07-1.03.69-1.42,1.43-1.97,2.03-.99,1.11-2.91,2.22-6.97,2.11"/>
    <path class="cls-5" d="m573.05,538.4c-1.09-.01-2.61.15-3.98,1.07-1.03.69-1.42,1.43-1.97,2.03-.99,1.11-2.91,2.22-6.97,2.11"/>
    <path class="cls-5" d="m573.02,536.4c-1.09-.01-2.61.15-3.98,1.07-1.03.69-1.42,1.43-1.97,2.03-.99,1.11-2.91,2.22-6.97,2.11"/>
    <path class="cls-5" d="m572.99,534.4c-1.09-.01-2.61.15-3.98,1.07-1.03.69-1.42,1.43-1.97,2.03-.99,1.11-2.91,2.22-6.97,2.11"/>
    <path class="cls-5" d="m572.95,532.4c-1.09-.01-2.61.15-3.98,1.07-1.03.69-1.42,1.43-1.97,2.03-.99,1.11-2.91,2.22-6.97,2.11"/>
    <path class="cls-5" d="m572.92,530.4c-1.09-.01-2.61.15-3.98,1.07-1.03.69-1.42,1.43-1.97,2.03-.99,1.11-2.91,2.22-6.97,2.11"/>
    <path class="cls-5" d="m572.89,528.4c-1.09-.01-2.61.15-3.98,1.07-1.03.69-1.42,1.43-1.97,2.03-.99,1.11-2.91,2.22-6.97,2.11"/>
    <path class="cls-5" d="m572.86,526.4c-1.09-.01-2.61.15-3.98,1.07-1.03.69-1.42,1.43-1.97,2.03-.99,1.11-2.91,2.22-6.97,2.11"/>
    <path class="cls-5" d="m572.82,524.4c-1.09-.01-2.61.15-3.98,1.07-1.03.69-1.42,1.43-1.97,2.03-.99,1.11-2.91,2.22-6.97,2.11"/>
    <path class="cls-5" d="m572.79,522.4c-1.09-.01-2.61.15-3.98,1.07-1.03.69-1.42,1.43-1.97,2.03-.99,1.11-2.91,2.22-6.97,2.11"/>
    <path class="cls-5" d="m572.76,520.4c-1.09-.01-2.61.15-3.98,1.07-1.03.69-1.42,1.43-1.97,2.03-.99,1.11-2.91,2.22-6.97,2.11"/>
    <path class="cls-5" d="m572.72,518.4c-1.09-.01-2.61.15-3.98,1.07-1.03.69-1.42,1.43-1.97,2.03-.99,1.11-2.91,2.22-6.97,2.11"/>
    <path class="cls-5" d="m572.69,516.4c-1.09-.01-2.61.15-3.98,1.07-1.03.69-1.42,1.43-1.97,2.03-.99,1.11-2.91,2.22-6.97,2.11"/>
    <path class="cls-5" d="m572.66,514.4c-1.09-.01-2.61.15-3.98,1.07-1.03.69-1.42,1.43-1.97,2.03-.99,1.11-2.91,2.22-6.97,2.11"/>
    <path class="cls-5" d="m572.63,512.4c-1.09-.01-2.61.15-3.98,1.07-1.03.69-1.42,1.43-1.97,2.03-.99,1.11-2.91,2.22-6.97,2.11"/>
    <path class="cls-5" d="m572.59,510.4c-1.09-.01-2.61.15-3.98,1.07-1.03.69-1.42,1.43-1.97,2.03-.99,1.11-2.91,2.22-6.97,2.11"/>
    <path class="cls-5" d="m572.56,508.4c-1.09-.01-2.61.15-3.98,1.07-1.03.69-1.42,1.43-1.97,2.03-.99,1.11-2.91,2.22-6.97,2.11"/>
    <path class="cls-5" d="m572.53,506.4c-1.09-.01-2.61.15-3.98,1.07-1.03.69-1.42,1.43-1.97,2.03-.99,1.11-2.91,2.22-6.97,2.11"/>
    <path class="cls-5" d="m572.5,504.4c-1.09-.01-2.61.15-3.98,1.07-1.03.69-1.42,1.43-1.97,2.03-.99,1.11-2.91,2.22-6.97,2.11"/>
    <path class="cls-5" d="m708.32,618.75c1.09-.09,2.61-.02,4.04.8,1.07.62,1.52,1.33,2.1,1.9,1.06,1.04,3.05,2.02,7.09,1.65"/>
    <path class="cls-5" d="m708.22,616.76c1.09-.09,2.61-.02,4.04.8,1.07.62,1.52,1.33,2.1,1.9,1.06,1.04,3.05,2.02,7.09,1.65"/>
    <path class="cls-5" d="m708.12,614.76c1.09-.09,2.61-.02,4.04.8,1.07.62,1.52,1.33,2.1,1.9,1.06,1.04,3.05,2.02,7.09,1.65"/>
    <path class="cls-5" d="m708.02,612.76c1.09-.09,2.61-.02,4.04.8,1.07.62,1.52,1.33,2.1,1.9,1.06,1.04,3.05,2.02,7.09,1.65"/>
    <path class="cls-5" d="m707.92,610.76c1.09-.09,2.61-.02,4.04.8,1.07.62,1.52,1.33,2.1,1.9,1.06,1.04,3.05,2.02,7.09,1.65"/>
    <path class="cls-5" d="m707.82,608.77c1.09-.09,2.61-.02,4.04.8,1.07.62,1.52,1.33,2.1,1.9,1.06,1.04,3.05,2.02,7.09,1.65"/>
    <path class="cls-5" d="m707.72,606.77c1.09-.09,2.61-.02,4.04.8,1.07.62,1.52,1.33,2.1,1.9,1.06,1.04,3.05,2.02,7.09,1.65"/>
    <path class="cls-5" d="m707.62,604.77c1.09-.09,2.61-.02,4.04.8,1.07.62,1.52,1.33,2.1,1.9,1.06,1.04,3.05,2.02,7.09,1.65"/>
    <path class="cls-5" d="m707.52,602.77c1.09-.09,2.61-.02,4.04.8,1.07.62,1.52,1.33,2.1,1.9,1.06,1.04,3.05,2.02,7.09,1.65"/>
    <path class="cls-5" d="m707.42,600.78c1.09-.09,2.61-.02,4.04.8,1.07.62,1.52,1.33,2.1,1.9,1.06,1.04,3.05,2.02,7.09,1.65"/>
    <path class="cls-5" d="m707.32,598.78c1.09-.09,2.61-.02,4.04.8,1.07.62,1.52,1.33,2.1,1.9,1.06,1.04,3.05,2.02,7.09,1.65"/>
    <path class="cls-5" d="m707.22,596.78c1.09-.09,2.61-.02,4.04.8,1.07.62,1.52,1.33,2.1,1.9,1.06,1.04,3.05,2.02,7.09,1.65"/>
    <path class="cls-5" d="m707.13,594.78c1.09-.09,2.61-.02,4.04.8,1.07.62,1.52,1.33,2.1,1.9,1.06,1.04,3.05,2.02,7.09,1.65"/>
    <path class="cls-5" d="m707.03,592.79c1.09-.09,2.61-.02,4.04.8,1.07.62,1.52,1.33,2.1,1.9,1.06,1.04,3.05,2.02,7.09,1.65"/>
    <path class="cls-5" d="m706.93,590.79c1.09-.09,2.61-.02,4.04.8,1.07.62,1.52,1.33,2.1,1.9,1.06,1.04,3.05,2.02,7.09,1.65"/>
    <path class="cls-5" d="m706.83,588.79c1.09-.09,2.61-.02,4.04.8,1.07.62,1.52,1.33,2.1,1.9,1.06,1.04,3.05,2.02,7.09,1.65"/>
    <path class="cls-5" d="m706.73,586.79c1.09-.09,2.61-.02,4.04.8,1.07.62,1.52,1.33,2.1,1.9,1.06,1.04,3.05,2.02,7.09,1.65"/>
    <path class="cls-5" d="m706.63,584.8c1.09-.09,2.61-.02,4.04.8,1.07.62,1.52,1.33,2.1,1.9,1.06,1.04,3.05,2.02,7.09,1.65"/>
    <path class="cls-5" d="m706.53,582.8c1.09-.09,2.61-.02,4.04.8,1.07.62,1.52,1.33,2.1,1.9,1.06,1.04,3.05,2.02,7.09,1.65"/>
    <path class="cls-5" d="m706.43,580.8c1.09-.09,2.61-.02,4.04.8,1.07.62,1.52,1.33,2.1,1.9,1.06,1.04,3.05,2.02,7.09,1.65"/>
    <path class="cls-5" d="m706.33,578.8c1.09-.09,2.61-.02,4.04.8,1.07.62,1.52,1.33,2.1,1.9,1.06,1.04,3.05,2.02,7.09,1.65"/>
    <path class="cls-5" d="m706.23,576.81c1.09-.09,2.61-.02,4.04.8,1.07.62,1.52,1.33,2.1,1.9,1.06,1.04,3.05,2.02,7.09,1.65"/>
    <path class="cls-5" d="m706.13,574.81c1.09-.09,2.61-.02,4.04.8,1.07.62,1.52,1.33,2.1,1.9,1.06,1.04,3.05,2.02,7.09,1.65"/>
    <path class="cls-5" d="m706.03,572.81c1.09-.09,2.61-.02,4.04.8,1.07.62,1.52,1.33,2.1,1.9,1.06,1.04,3.05,2.02,7.09,1.65"/>
    <path class="cls-5" d="m705.93,570.81c1.09-.09,2.61-.02,4.04.8,1.07.62,1.52,1.33,2.1,1.9,1.06,1.04,3.05,2.02,7.09,1.65"/>
    <path class="cls-5" d="m705.83,568.82c1.09-.09,2.61-.02,4.04.8,1.07.62,1.52,1.33,2.1,1.9,1.06,1.04,3.05,2.02,7.09,1.65"/>
    <path class="cls-5" d="m705.73,566.82c1.09-.09,2.61-.02,4.04.8,1.07.62,1.52,1.33,2.1,1.9,1.06,1.04,3.05,2.02,7.09,1.65"/>
    <path class="cls-5" d="m705.63,564.82c1.09-.09,2.61-.02,4.04.8,1.07.62,1.52,1.33,2.1,1.9,1.06,1.04,3.05,2.02,7.09,1.65"/>
    <path class="cls-5" d="m705.53,562.82c1.09-.09,2.61-.02,4.04.8,1.07.62,1.52,1.33,2.1,1.9,1.06,1.04,3.05,2.02,7.09,1.65"/>
    <path class="cls-5" d="m705.43,560.83c1.09-.09,2.61-.02,4.04.8,1.07.62,1.52,1.33,2.1,1.9,1.06,1.04,3.05,2.02,7.09,1.65"/>
    <path class="cls-5" d="m705.33,558.83c1.09-.09,2.61-.02,4.04.8,1.07.62,1.52,1.33,2.1,1.9,1.06,1.04,3.05,2.02,7.09,1.65"/>
    <path class="cls-5" d="m705.23,556.83c1.09-.09,2.61-.02,4.04.8,1.07.62,1.52,1.33,2.1,1.9,1.06,1.04,3.05,2.02,7.09,1.65"/>
    <path class="cls-5" d="m705.13,554.83c1.09-.09,2.61-.02,4.04.8,1.07.62,1.52,1.33,2.1,1.9,1.06,1.04,3.05,2.02,7.09,1.65"/>
    <path class="cls-5" d="m705.03,552.84c1.09-.09,2.61-.02,4.04.8,1.07.62,1.52,1.33,2.1,1.9,1.06,1.04,3.05,2.02,7.09,1.65"/>
    <path class="cls-5" d="m704.94,550.84c1.09-.09,2.61-.02,4.04.8,1.07.62,1.52,1.33,2.1,1.9,1.06,1.04,3.05,2.02,7.09,1.65"/>
    <path class="cls-5" d="m704.84,548.84c1.09-.09,2.61-.02,4.04.8,1.07.62,1.52,1.33,2.1,1.9,1.06,1.04,3.05,2.02,7.09,1.65"/>
    <path class="cls-5" d="m704.74,546.84c1.09-.09,2.61-.02,4.04.8,1.07.62,1.52,1.33,2.1,1.9,1.06,1.04,3.05,2.02,7.09,1.65"/>
    <path class="cls-5" d="m704.64,544.85c1.09-.09,2.61-.02,4.04.8,1.07.62,1.52,1.33,2.1,1.9,1.06,1.04,3.05,2.02,7.09,1.65"/>
    <path class="cls-5" d="m704.54,542.85c1.09-.09,2.61-.02,4.04.8,1.07.62,1.52,1.33,2.1,1.9,1.06,1.04,3.05,2.02,7.09,1.65"/>
    <path class="cls-5" d="m704.44,540.85c1.09-.09,2.61-.02,4.04.8,1.07.62,1.52,1.33,2.1,1.9,1.06,1.04,3.05,2.02,7.09,1.65"/>
    <path class="cls-5" d="m704.34,538.85c1.09-.09,2.61-.02,4.04.8,1.07.62,1.52,1.33,2.1,1.9,1.06,1.04,3.05,2.02,7.09,1.65"/>
    <path class="cls-5" d="m704.24,536.86c1.09-.09,2.61-.02,4.04.8,1.07.62,1.52,1.33,2.1,1.9,1.06,1.04,3.05,2.02,7.09,1.65"/>
    <path class="cls-5" d="m704.14,534.86c1.09-.09,2.61-.02,4.04.8,1.07.62,1.52,1.33,2.1,1.9,1.06,1.04,3.05,2.02,7.09,1.65"/>
    <path class="cls-5" d="m704.04,532.86c1.09-.09,2.61-.02,4.04.8,1.07.62,1.52,1.33,2.1,1.9,1.06,1.04,3.05,2.02,7.09,1.65"/>
    <path class="cls-5" d="m703.94,530.86c1.09-.09,2.61-.02,4.04.8,1.07.62,1.52,1.33,2.1,1.9,1.06,1.04,3.05,2.02,7.09,1.65"/>
    <path class="cls-5" d="m703.84,528.87c1.09-.09,2.61-.02,4.04.8,1.07.62,1.52,1.33,2.1,1.9,1.06,1.04,3.05,2.02,7.09,1.65"/>
    <path class="cls-5" d="m703.74,526.87c1.09-.09,2.61-.02,4.04.8,1.07.62,1.52,1.33,2.1,1.9,1.06,1.04,3.05,2.02,7.09,1.65"/>
    <path class="cls-5" d="m703.64,524.87c1.09-.09,2.61-.02,4.04.8,1.07.62,1.52,1.33,2.1,1.9,1.06,1.04,3.05,2.02,7.09,1.65"/>
    <path class="cls-5" d="m703.54,522.87c1.09-.09,2.61-.02,4.04.8,1.07.62,1.52,1.33,2.1,1.9,1.06,1.04,3.05,2.02,7.09,1.65"/>
    <path class="cls-5" d="m703.44,520.87c1.09-.09,2.61-.02,4.04.8,1.07.62,1.52,1.33,2.1,1.9,1.06,1.04,3.05,2.02,7.09,1.65"/>
    <path class="cls-5" d="m703.34,518.88c1.09-.09,2.61-.02,4.04.8,1.07.62,1.52,1.33,2.1,1.9,1.06,1.04,3.05,2.02,7.09,1.65"/>
    <path class="cls-5" d="m703.24,516.88c1.09-.09,2.61-.02,4.04.8,1.07.62,1.52,1.33,2.1,1.9,1.06,1.04,3.05,2.02,7.09,1.65"/>
    <path class="cls-5" d="m703.14,514.88c1.09-.09,2.61-.02,4.04.8,1.07.62,1.52,1.33,2.1,1.9,1.06,1.04,3.05,2.02,7.09,1.65"/>
    <path class="cls-5" d="m703.04,512.88c1.09-.09,2.61-.02,4.04.8,1.07.62,1.52,1.33,2.1,1.9,1.06,1.04,3.05,2.02,7.09,1.65"/>
    <path class="cls-5" d="m702.94,510.89c1.09-.09,2.61-.02,4.04.8,1.07.62,1.52,1.33,2.1,1.9,1.06,1.04,3.05,2.02,7.09,1.65"/>
    <path class="cls-5" d="m702.84,508.89c1.09-.09,2.61-.02,4.04.8,1.07.62,1.52,1.33,2.1,1.9,1.06,1.04,3.05,2.02,7.09,1.65"/>
    <path class="cls-5" d="m702.75,506.89c1.09-.09,2.61-.02,4.04.8,1.07.62,1.52,1.33,2.1,1.9,1.06,1.04,3.05,2.02,7.09,1.65"/>
    <path class="cls-5" d="m702.65,504.89c1.09-.09,2.61-.02,4.04.8,1.07.62,1.52,1.33,2.1,1.9,1.06,1.04,3.05,2.02,7.09,1.65"/>
    <path class="cls-5" d="m702.55,502.9c1.09-.09,2.61-.02,4.04.8,1.07.62,1.52,1.33,2.1,1.9,1.06,1.04,3.05,2.02,7.09,1.65"/>
    <path class="cls-5" d="m702.45,500.9c1.09-.09,2.61-.02,4.04.8,1.07.62,1.52,1.33,2.1,1.9,1.06,1.04,3.05,2.02,7.09,1.65"/>
    <polyline class="cls-5" points="579.58 622.22 579.5 632.95 579.5 642"/>
    <polyline class="cls-5" points="579.58 622.22 579.5 632.95 579.5 642"/>
    <polyline class="cls-5" points="581.58 622.22 581.5 632.95 581.5 642"/>
    <polyline class="cls-5" points="583.58 622.22 583.5 632.95 583.5 642"/>
    <polyline class="cls-5" points="587.58 622.22 587.5 632.95 587.5 642"/>
    <polyline class="cls-5" points="585.58 622.22 585.5 632.95 585.5 642"/>
    <polyline class="cls-5" points="589.58 622.22 589.5 632.95 589.5 642"/>
    <polyline class="cls-5" points="589.58 622.22 589.5 632.95 589.5 642"/>
    <polyline class="cls-5" points="591.58 622.22 591.5 632.95 591.5 642"/>
    <polyline class="cls-5" points="593.58 622.22 593.5 632.95 593.5 642"/>
    <polyline class="cls-5" points="597.58 622.22 597.5 632.95 597.5 642"/>
    <polyline class="cls-5" points="595.58 622.22 595.5 632.95 595.5 642"/>
    <polyline class="cls-5" points="599.58 622.22 599.5 632.95 599.5 642"/>
    <polyline class="cls-5" points="599.58 622.22 599.5 632.95 599.5 642"/>
    <polyline class="cls-5" points="601.58 622.22 601.5 632.95 601.5 642"/>
    <polyline class="cls-5" points="603.58 622.22 603.5 632.95 603.5 642"/>
    <polyline class="cls-5" points="607.58 621.02 607.5 631.75 607.5 640.79"/>
    <polyline class="cls-5" points="605.58 622.22 605.5 632.95 605.5 642"/>
    <polyline class="cls-5" points="609.58 621.02 609.5 631.75 609.5 640.79"/>
    <polyline class="cls-5" points="611.58 621.02 611.5 631.75 611.5 640.79"/>
    <polyline class="cls-5" points="613.58 621.02 613.5 631.75 613.5 640.79"/>
    <polyline class="cls-5" points="617.58 621.02 617.5 631.75 617.5 640.79"/>
    <polyline class="cls-5" points="615.58 621.02 615.5 631.75 615.5 640.79"/>
    <polyline class="cls-5" points="619.58 621.02 619.5 631.75 619.5 640.79"/>
    <polyline class="cls-5" points="621.58 621.02 621.5 631.75 621.5 640.79"/>
    <polyline class="cls-5" points="623.58 621.02 623.5 631.75 623.5 640.79"/>
    <polyline class="cls-5" points="627.58 621.02 627.5 631.75 627.5 640.79"/>
    <polyline class="cls-5" points="625.58 621.02 625.5 631.75 625.5 640.79"/>
    <polyline class="cls-5" points="629.58 621.02 629.5 631.75 629.5 640.79"/>
    <polyline class="cls-5" points="631.58 621.02 631.5 631.75 631.5 640.79"/>
    <polyline class="cls-5" points="633.58 621.02 633.5 631.75 633.5 640.79"/>
    <polyline class="cls-5" points="637.58 621.02 637.5 631.75 637.5 640.79"/>
    <polyline class="cls-5" points="635.58 621.02 635.5 631.75 635.5 640.79"/>
    <polyline class="cls-5" points="639.58 621.02 639.5 631.75 639.5 640.79"/>
    <polyline class="cls-5" points="641.58 621.02 641.5 631.75 641.5 640.79"/>
    <polyline class="cls-5" points="643.58 621.02 643.5 631.75 643.5 640.79"/>
    <polyline class="cls-5" points="647.58 621.02 647.5 631.75 647.5 640.79"/>
    <polyline class="cls-5" points="645.58 621.02 645.5 631.75 645.5 640.79"/>
    <polyline class="cls-5" points="649.58 621.02 649.5 631.75 649.5 640.79"/>
    <polyline class="cls-5" points="651.58 621.02 651.5 631.75 651.5 640.79"/>
    <polyline class="cls-5" points="653.58 621.02 653.5 631.75 653.5 640.79"/>
    <polyline class="cls-5" points="657.58 621.02 657.5 631.75 657.5 640.79"/>
    <polyline class="cls-5" points="655.58 621.02 655.5 631.75 655.5 640.79"/>
    <polyline class="cls-5" points="659.58 621.02 659.5 631.75 659.5 640.79"/>
    <polyline class="cls-5" points="661.58 621.02 661.5 631.75 661.5 640.79"/>
    <polyline class="cls-5" points="663.58 621.02 663.5 631.75 663.5 640.79"/>
    <polyline class="cls-5" points="667.58 621.02 667.5 631.75 667.5 640.79"/>
    <polyline class="cls-5" points="665.58 621.02 665.5 631.75 665.5 640.79"/>
    <polyline class="cls-5" points="669.58 621.02 669.5 631.75 669.5 640.79"/>
    <polyline class="cls-5" points="671.58 621.02 671.5 631.75 671.5 640.79"/>
    <polyline class="cls-5" points="673.58 621.02 673.5 631.75 673.5 640.79"/>
    <polyline class="cls-5" points="677.58 621.02 677.5 631.75 677.5 640.79"/>
    <polyline class="cls-5" points="675.58 621.02 675.5 631.75 675.5 640.79"/>
    <polyline class="cls-5" points="679.58 621.02 679.5 631.75 679.5 640.79"/>
    <polyline class="cls-5" points="681.58 621.02 681.5 631.75 681.5 640.79"/>
    <polyline class="cls-5" points="683.58 621.02 683.5 631.75 683.5 640.79"/>
    <polyline class="cls-5" points="687.58 621.02 687.5 631.75 687.5 640.79"/>
    <polyline class="cls-5" points="685.58 621.02 685.5 631.75 685.5 640.79"/>
    <polyline class="cls-5" points="689.58 621.02 689.5 631.75 689.5 640.79"/>
    <polyline class="cls-5" points="691.58 619.81 691.5 630.54 691.5 639.59"/>
    <polyline class="cls-5" points="693.58 619.81 693.5 630.54 693.5 639.59"/>
    <polyline class="cls-5" points="697.58 619.81 697.5 630.54 697.5 639.59"/>
    <polyline class="cls-5" points="695.58 619.81 695.5 630.54 695.5 639.59"/>
    <polyline class="cls-5" points="699.58 618.6 699.5 629.33 699.5 638.38"/>
    <polyline class="cls-5" points="701.58 618.6 701.5 629.33 701.5 638.38"/>
    <polyline class="cls-5" points="703.58 618.6 703.5 629.33 703.5 638.38"/>
    <polyline class="cls-5" points="575.58 492.22 575.5 502.95 575.5 512"/>
    <polyline class="cls-5" points="575.58 492.22 575.5 502.95 575.5 512"/>
    <polyline class="cls-5" points="577.58 492.22 577.5 502.95 577.5 512"/>
    <polyline class="cls-5" points="579.58 492.22 579.5 502.95 579.5 512"/>
    <polyline class="cls-5" points="583.58 492.22 583.5 502.95 583.5 512"/>
    <polyline class="cls-5" points="581.58 492.22 581.5 502.95 581.5 512"/>
    <polyline class="cls-5" points="585.58 492.22 585.5 502.95 585.5 512"/>
    <polyline class="cls-5" points="585.58 492.22 585.5 502.95 585.5 512"/>
    <polyline class="cls-5" points="587.58 492.22 587.5 502.95 587.5 512"/>
    <polyline class="cls-5" points="589.58 492.22 589.5 502.95 589.5 512"/>
    <polyline class="cls-5" points="593.58 492.22 593.5 502.95 593.5 512"/>
    <polyline class="cls-5" points="591.58 492.22 591.5 502.95 591.5 512"/>
    <polyline class="cls-5" points="595.58 492.22 595.5 502.95 595.5 512"/>
    <polyline class="cls-5" points="595.58 492.22 595.5 502.95 595.5 512"/>
    <polyline class="cls-5" points="597.58 492.22 597.5 502.95 597.5 512"/>
    <polyline class="cls-5" points="599.58 492.22 599.5 502.95 599.5 512"/>
    <polyline class="cls-5" points="603.58 491.02 603.5 501.75 603.5 510.79"/>
    <polyline class="cls-5" points="601.58 492.22 601.5 502.95 601.5 512"/>
    <polyline class="cls-5" points="605.58 491.02 605.5 501.75 605.5 510.79"/>
    <polyline class="cls-5" points="607.58 491.02 607.5 501.75 607.5 510.79"/>
    <polyline class="cls-5" points="609.58 491.02 609.5 501.75 609.5 510.79"/>
    <polyline class="cls-5" points="613.58 491.02 613.5 501.75 613.5 510.79"/>
    <polyline class="cls-5" points="611.58 491.02 611.5 501.75 611.5 510.79"/>
    <polyline class="cls-5" points="615.58 491.02 615.5 501.75 615.5 510.79"/>
    <polyline class="cls-5" points="617.58 491.02 617.5 501.75 617.5 510.79"/>
    <polyline class="cls-5" points="619.58 491.02 619.5 501.75 619.5 510.79"/>
    <polyline class="cls-5" points="623.58 491.02 623.5 501.75 623.5 510.79"/>
    <polyline class="cls-5" points="621.58 491.02 621.5 501.75 621.5 510.79"/>
    <polyline class="cls-5" points="625.58 491.02 625.5 501.75 625.5 510.79"/>
    <polyline class="cls-5" points="627.58 491.02 627.5 501.75 627.5 510.79"/>
    <polyline class="cls-5" points="629.58 491.02 629.5 501.75 629.5 510.79"/>
    <polyline class="cls-5" points="633.58 491.02 633.5 501.75 633.5 510.79"/>
    <polyline class="cls-5" points="631.58 491.02 631.5 501.75 631.5 510.79"/>
    <polyline class="cls-5" points="635.58 491.02 635.5 501.75 635.5 510.79"/>
    <polyline class="cls-5" points="637.58 491.02 637.5 501.75 637.5 510.79"/>
    <polyline class="cls-5" points="639.58 491.02 639.5 501.75 639.5 510.79"/>
    <polyline class="cls-5" points="643.58 491.02 643.5 501.75 643.5 510.79"/>
    <polyline class="cls-5" points="641.58 491.02 641.5 501.75 641.5 510.79"/>
    <polyline class="cls-5" points="645.58 491.02 645.5 501.75 645.5 510.79"/>
    <polyline class="cls-5" points="647.58 491.02 647.5 501.75 647.5 510.79"/>
    <polyline class="cls-5" points="649.58 491.02 649.5 501.75 649.5 510.79"/>
    <polyline class="cls-5" points="653.58 491.02 653.5 501.75 653.5 510.79"/>
    <polyline class="cls-5" points="651.58 491.02 651.5 501.75 651.5 510.79"/>
    <polyline class="cls-5" points="655.58 490.02 655.5 500.75 655.5 509.79"/>
    <polyline class="cls-5" points="657.58 490.02 657.5 500.75 657.5 509.79"/>
    <polyline class="cls-5" points="659.58 490.02 659.5 500.75 659.5 509.79"/>
    <polyline class="cls-5" points="663.58 490.02 663.5 500.75 663.5 509.79"/>
    <polyline class="cls-5" points="661.58 490.02 661.5 500.75 661.5 509.79"/>
    <polyline class="cls-5" points="665.58 490.02 665.5 500.75 665.5 509.79"/>
    <polyline class="cls-5" points="667.58 490.02 667.5 500.75 667.5 509.79"/>
    <polyline class="cls-5" points="669.58 490.02 669.5 500.75 669.5 509.79"/>
    <polyline class="cls-5" points="673.58 490.02 673.5 500.75 673.5 509.79"/>
    <polyline class="cls-5" points="671.58 490.02 671.5 500.75 671.5 509.79"/>
    <polyline class="cls-5" points="675.58 490.02 675.5 500.75 675.5 509.79"/>
    <polyline class="cls-5" points="677.58 490.02 677.5 500.75 677.5 509.79"/>
    <polyline class="cls-5" points="679.58 490.02 679.5 500.75 679.5 509.79"/>
    <polyline class="cls-5" points="683.58 490.02 683.5 500.75 683.5 509.79"/>
    <polyline class="cls-5" points="681.58 490.02 681.5 500.75 681.5 509.79"/>
    <polyline class="cls-5" points="685.58 490.02 685.5 500.75 685.5 509.79"/>
    <polyline class="cls-5" points="687.58 489.81 687.5 500.54 687.5 509.59"/>
    <polyline class="cls-5" points="689.58 489.81 689.5 500.54 689.5 509.59"/>
    <polyline class="cls-5" points="693.58 489.81 693.5 500.54 693.5 509.59"/>
    <polyline class="cls-5" points="691.58 489.81 691.5 500.54 691.5 509.59"/>
    <polyline class="cls-5" points="695.58 488.6 695.5 499.33 695.5 508.38"/>
    <polyline class="cls-5" points="697.58 488.6 697.5 499.33 697.5 508.38"/>
    <polyline class="cls-5" points="699.58 488.6 699.5 499.33 699.5 508.38"/>
    <path class="cls-3" d="m573,619c0-1-3.27-28.83-2-114,.34-.61,1.24-2.01,3-3,1.7-.95,3.3-1.01,4-1l120-2c.22-.03,1.81-.18,3,1,.76.76.95,1.66,1,2l6,116c-.31.49-.93,1.32-2,2-1.23.78-2.41.95-3,1l-123,3c-1,0-1.17.41-4-1-2-1-3-3.94-3-4Z"/>
  </g>
  <g id="CPU">
    <path class="cls-9" d="m768.59,201c0-1-3.59-70-4-88,.34-.61,1.24-2.01,3-3,1.7-.95,3.3-1.01,4-1l93-3c.22-.03,1.81-.18,3,1,.76.76.95,1.66,1,2l7,91c-.31.49-.93,1.32-2,2-1.23.78-2.41.95-3,1l-95,3c-1,0-1.17.41-4-1-2-1-3-3.94-3-4Z"/>
    <polyline class="cls-5" points="778.75 190.21 778.67 200.94 778.67 209.99"/>
    <polyline class="cls-5" points="778.75 190.21 778.67 200.94 778.67 209.99"/>
    <polyline class="cls-5" points="780.75 190.21 780.67 200.94 780.67 209.99"/>
    <polyline class="cls-5" points="782.75 190.21 782.67 200.94 782.67 209.99"/>
    <polyline class="cls-5" points="786.75 190.21 786.67 200.94 786.67 209.99"/>
    <polyline class="cls-5" points="784.75 190.21 784.67 200.94 784.67 209.99"/>
    <polyline class="cls-5" points="788.75 190.21 788.67 200.94 788.67 209.99"/>
    <polyline class="cls-5" points="788.75 190.21 788.67 200.94 788.67 209.99"/>
    <polyline class="cls-5" points="790.75 190.21 790.67 200.94 790.67 209.99"/>
    <polyline class="cls-5" points="792.75 190.21 792.67 200.94 792.67 209.99"/>
    <polyline class="cls-5" points="796.75 190.21 796.67 200.94 796.67 209.99"/>
    <polyline class="cls-5" points="794.75 190.21 794.67 200.94 794.67 209.99"/>
    <polyline class="cls-5" points="798.75 190.21 798.67 200.94 798.67 209.99"/>
    <polyline class="cls-5" points="798.75 190.21 798.67 200.94 798.67 209.99"/>
    <polyline class="cls-5" points="800.75 190.21 800.67 200.94 800.67 209.99"/>
    <polyline class="cls-5" points="802.75 190.21 802.67 200.94 802.67 209.99"/>
    <polyline class="cls-5" points="806.75 189.01 806.67 199.74 806.67 208.78"/>
    <polyline class="cls-5" points="804.75 190.21 804.67 200.94 804.67 209.99"/>
    <polyline class="cls-5" points="808.75 189.01 808.67 199.74 808.67 208.78"/>
    <polyline class="cls-5" points="810.75 189.01 810.67 199.74 810.67 208.78"/>
    <polyline class="cls-5" points="812.75 189.01 812.67 199.74 812.67 208.78"/>
    <polyline class="cls-5" points="816.75 189.01 816.67 199.74 816.67 208.78"/>
    <polyline class="cls-5" points="814.75 189.01 814.67 199.74 814.67 208.78"/>
    <polyline class="cls-5" points="818.75 189.01 818.67 199.74 818.67 208.78"/>
    <polyline class="cls-5" points="820.75 189.01 820.67 199.74 820.67 208.78"/>
    <polyline class="cls-5" points="822.75 189.01 822.67 199.74 822.67 208.78"/>
    <polyline class="cls-5" points="826.75 189.01 826.67 199.74 826.67 208.78"/>
    <polyline class="cls-5" points="824.75 189.01 824.67 199.74 824.67 208.78"/>
    <polyline class="cls-5" points="828.75 189.01 828.67 199.74 828.67 208.78"/>
    <polyline class="cls-5" points="830.75 189.01 830.67 199.74 830.67 208.78"/>
    <polyline class="cls-5" points="832.75 189.01 832.67 199.74 832.67 208.78"/>
    <polyline class="cls-5" points="836.75 189.01 836.67 199.74 836.67 208.78"/>
    <polyline class="cls-5" points="834.75 189.01 834.67 199.74 834.67 208.78"/>
    <polyline class="cls-5" points="838.75 189.01 838.67 199.74 838.67 208.78"/>
    <polyline class="cls-5" points="840.75 189.01 840.67 199.74 840.67 208.78"/>
    <polyline class="cls-5" points="842.75 189.01 842.67 199.74 842.67 208.78"/>
    <polyline class="cls-5" points="846.75 189.01 846.67 199.74 846.67 208.78"/>
    <polyline class="cls-5" points="844.75 189.01 844.67 199.74 844.67 208.78"/>
    <polyline class="cls-5" points="848.75 189.01 848.67 199.74 848.67 208.78"/>
    <polyline class="cls-5" points="850.75 189.01 850.67 199.74 850.67 208.78"/>
    <polyline class="cls-5" points="852.75 189.01 852.67 199.74 852.67 208.78"/>
    <polyline class="cls-5" points="856.75 189.01 856.67 199.74 856.67 208.78"/>
    <polyline class="cls-5" points="854.75 189.01 854.67 199.74 854.67 208.78"/>
    <polyline class="cls-5" points="858.75 189.01 858.67 199.74 858.67 208.78"/>
    <polyline class="cls-5" points="860.75 189.01 860.67 199.74 860.67 208.78"/>
    <polyline class="cls-5" points="862.75 189.01 862.67 199.74 862.67 208.78"/>
    <polyline class="cls-5" points="866.75 189.01 866.67 199.74 866.67 208.78"/>
    <polyline class="cls-5" points="864.75 189.01 864.67 199.74 864.67 208.78"/>
    <polyline class="cls-5" points="868.75 189.01 868.67 199.74 868.67 208.78"/>
    <polyline class="cls-5" points="870.75 189.01 870.67 199.74 870.67 208.78"/>
    <polyline class="cls-5" points="872.75 189.01 872.67 199.74 872.67 208.78"/>
    <path class="cls-5" d="m869.11,190.88c1.08-.14,2.61-.16,4.08.59,1.11.56,1.58,1.25,2.19,1.78,1.12.98,3.15,1.86,7.17,1.27"/>
    <path class="cls-5" d="m868.91,188.89c1.08-.14,2.61-.16,4.08.59,1.11.56,1.58,1.25,2.19,1.78,1.12.98,3.15,1.86,7.17,1.27"/>
    <path class="cls-5" d="m868.7,186.9c1.08-.14,2.61-.16,4.08.59,1.11.56,1.58,1.25,2.19,1.78,1.12.98,3.15,1.86,7.17,1.27"/>
    <path class="cls-5" d="m868.5,184.91c1.08-.14,2.61-.16,4.08.59,1.11.56,1.58,1.25,2.19,1.78,1.12.98,3.15,1.86,7.17,1.27"/>
    <path class="cls-5" d="m868.29,182.92c1.08-.14,2.61-.16,4.08.59,1.11.56,1.58,1.25,2.19,1.78,1.12.98,3.15,1.86,7.17,1.27"/>
    <path class="cls-5" d="m868.09,180.93c1.08-.14,2.61-.16,4.08.59,1.11.56,1.58,1.25,2.19,1.78,1.12.98,3.15,1.86,7.17,1.27"/>
    <path class="cls-5" d="m867.88,178.94c1.08-.14,2.61-.16,4.08.59,1.11.56,1.58,1.25,2.19,1.78,1.12.98,3.15,1.86,7.17,1.27"/>
    <path class="cls-5" d="m867.68,176.95c1.08-.14,2.61-.16,4.08.59,1.11.56,1.58,1.25,2.19,1.78,1.12.98,3.15,1.86,7.17,1.27"/>
    <path class="cls-5" d="m867.47,174.96c1.08-.14,2.61-.16,4.08.59,1.11.56,1.58,1.25,2.19,1.78,1.12.98,3.15,1.86,7.17,1.27"/>
    <path class="cls-5" d="m867.27,172.97c1.08-.14,2.61-.16,4.08.59,1.11.56,1.58,1.25,2.19,1.78,1.12.98,3.15,1.86,7.17,1.27"/>
    <path class="cls-5" d="m867.06,170.98c1.08-.14,2.61-.16,4.08.59,1.11.56,1.58,1.25,2.19,1.78,1.12.98,3.15,1.86,7.17,1.27"/>
    <path class="cls-5" d="m866.86,168.99c1.08-.14,2.61-.16,4.08.59,1.11.56,1.58,1.25,2.19,1.78,1.12.98,3.15,1.86,7.17,1.27"/>
    <path class="cls-5" d="m866.65,167.01c1.08-.14,2.61-.16,4.08.59,1.11.56,1.58,1.25,2.19,1.78,1.12.98,3.15,1.86,7.17,1.27"/>
    <path class="cls-5" d="m866.45,165.02c1.08-.14,2.61-.16,4.08.59,1.11.56,1.58,1.25,2.19,1.78,1.12.98,3.15,1.86,7.17,1.27"/>
    <path class="cls-5" d="m866.25,163.03c1.08-.14,2.61-.16,4.08.59,1.11.56,1.58,1.25,2.19,1.78,1.12.98,3.15,1.86,7.17,1.27"/>
    <path class="cls-5" d="m866.04,161.04c1.08-.14,2.61-.16,4.08.59,1.11.56,1.58,1.25,2.19,1.78,1.12.98,3.15,1.86,7.17,1.27"/>
    <path class="cls-5" d="m865.84,159.05c1.08-.14,2.61-.16,4.08.59,1.11.56,1.58,1.25,2.19,1.78,1.12.98,3.15,1.86,7.17,1.27"/>
    <path class="cls-5" d="m865.63,157.06c1.08-.14,2.61-.16,4.08.59,1.11.56,1.58,1.25,2.19,1.78,1.12.98,3.15,1.86,7.17,1.27"/>
    <path class="cls-5" d="m865.43,155.07c1.08-.14,2.61-.16,4.08.59,1.11.56,1.58,1.25,2.19,1.78,1.12.98,3.15,1.86,7.17,1.27"/>
    <path class="cls-5" d="m865.22,153.08c1.08-.14,2.61-.16,4.08.59,1.11.56,1.58,1.25,2.19,1.78,1.12.98,3.15,1.86,7.17,1.27"/>
    <path class="cls-5" d="m865.02,151.09c1.08-.14,2.61-.16,4.08.59,1.11.56,1.58,1.25,2.19,1.78,1.12.98,3.15,1.86,7.17,1.27"/>
    <path class="cls-5" d="m864.81,149.1c1.08-.14,2.61-.16,4.08.59,1.11.56,1.58,1.25,2.19,1.78,1.12.98,3.15,1.86,7.17,1.27"/>
    <path class="cls-5" d="m864.61,147.11c1.08-.14,2.61-.16,4.08.59,1.11.56,1.58,1.25,2.19,1.78,1.12.98,3.15,1.86,7.17,1.27"/>
    <path class="cls-5" d="m864.4,145.12c1.08-.14,2.61-.16,4.08.59,1.11.56,1.58,1.25,2.19,1.78,1.12.98,3.15,1.86,7.17,1.27"/>
    <path class="cls-5" d="m864.2,143.13c1.08-.14,2.61-.16,4.08.59,1.11.56,1.58,1.25,2.19,1.78,1.12.98,3.15,1.86,7.17,1.27"/>
    <path class="cls-5" d="m863.99,141.14c1.08-.14,2.61-.16,4.08.59,1.11.56,1.58,1.25,2.19,1.78,1.12.98,3.15,1.86,7.17,1.27"/>
    <path class="cls-5" d="m863.79,139.15c1.08-.14,2.61-.16,4.08.59,1.11.56,1.58,1.25,2.19,1.78,1.12.98,3.15,1.86,7.17,1.27"/>
    <path class="cls-5" d="m863.58,137.16c1.08-.14,2.61-.16,4.08.59,1.11.56,1.58,1.25,2.19,1.78,1.12.98,3.15,1.86,7.17,1.27"/>
    <path class="cls-5" d="m863.38,135.17c1.08-.14,2.61-.16,4.08.59,1.11.56,1.58,1.25,2.19,1.78,1.12.98,3.15,1.86,7.17,1.27"/>
    <path class="cls-5" d="m863.18,133.18c1.08-.14,2.61-.16,4.08.59,1.11.56,1.58,1.25,2.19,1.78,1.12.98,3.15,1.86,7.17,1.27"/>
    <path class="cls-5" d="m862.97,131.19c1.08-.14,2.61-.16,4.08.59,1.11.56,1.58,1.25,2.19,1.78,1.12.98,3.15,1.86,7.17,1.27"/>
    <path class="cls-5" d="m862.77,129.2c1.08-.14,2.61-.16,4.08.59,1.11.56,1.58,1.25,2.19,1.78,1.12.98,3.15,1.86,7.17,1.27"/>
    <path class="cls-5" d="m862.56,127.22c1.08-.14,2.61-.16,4.08.59,1.11.56,1.58,1.25,2.19,1.78,1.12.98,3.15,1.86,7.17,1.27"/>
    <path class="cls-5" d="m862.36,125.23c1.08-.14,2.61-.16,4.08.59,1.11.56,1.58,1.25,2.19,1.78,1.12.98,3.15,1.86,7.17,1.27"/>
    <path class="cls-5" d="m862.15,123.24c1.08-.14,2.61-.16,4.08.59,1.11.56,1.58,1.25,2.19,1.78,1.12.98,3.15,1.86,7.17,1.27"/>
    <path class="cls-5" d="m861.95,121.25c1.08-.14,2.61-.16,4.08.59,1.11.56,1.58,1.25,2.19,1.78,1.12.98,3.15,1.86,7.17,1.27"/>
    <path class="cls-5" d="m861.74,119.26c1.08-.14,2.61-.16,4.08.59,1.11.56,1.58,1.25,2.19,1.78,1.12.98,3.15,1.86,7.17,1.27"/>
    <path class="cls-5" d="m861.54,117.27c1.08-.14,2.61-.16,4.08.59,1.11.56,1.58,1.25,2.19,1.78,1.12.98,3.15,1.86,7.17,1.27"/>
    <path class="cls-5" d="m861.33,115.28c1.08-.14,2.61-.16,4.08.59,1.11.56,1.58,1.25,2.19,1.78,1.12.98,3.15,1.86,7.17,1.27"/>
    <path class="cls-5" d="m861.13,113.29c1.08-.14,2.61-.16,4.08.59,1.11.56,1.58,1.25,2.19,1.78,1.12.98,3.15,1.86,7.17,1.27"/>
    <path class="cls-5" d="m860.92,111.3c1.08-.14,2.61-.16,4.08.59,1.11.56,1.58,1.25,2.19,1.78,1.12.98,3.15,1.86,7.17,1.27"/>
    <path class="cls-5" d="m860.72,109.31c1.08-.14,2.61-.16,4.08.59,1.11.56,1.58,1.25,2.19,1.78,1.12.98,3.15,1.86,7.17,1.27"/>
    <path class="cls-5" d="m860.51,107.32c1.08-.14,2.61-.16,4.08.59,1.11.56,1.58,1.25,2.19,1.78,1.12.98,3.15,1.86,7.17,1.27"/>
    <path class="cls-5" d="m777.35,195.81c-1.09.03-2.6.25-3.94,1.21-1.01.73-1.37,1.48-1.89,2.11-.95,1.14-2.82,2.32-6.88,2.37"/>
    <path class="cls-5" d="m777.24,193.81c-1.09.03-2.6.25-3.94,1.21-1.01.73-1.37,1.48-1.89,2.11-.95,1.14-2.82,2.32-6.88,2.37"/>
    <path class="cls-5" d="m777.13,191.81c-1.09.03-2.6.25-3.94,1.21-1.01.73-1.37,1.48-1.89,2.11-.95,1.14-2.82,2.32-6.88,2.37"/>
    <path class="cls-5" d="m777.03,189.81c-1.09.03-2.6.25-3.94,1.21-1.01.73-1.37,1.48-1.89,2.11-.95,1.14-2.82,2.32-6.88,2.37"/>
    <path class="cls-5" d="m776.92,187.82c-1.09.03-2.6.25-3.94,1.21-1.01.73-1.37,1.48-1.89,2.11-.95,1.14-2.82,2.32-6.88,2.37"/>
    <path class="cls-5" d="m776.81,185.82c-1.09.03-2.6.25-3.94,1.21-1.01.73-1.37,1.48-1.89,2.11-.95,1.14-2.82,2.32-6.88,2.37"/>
    <path class="cls-5" d="m776.7,183.82c-1.09.03-2.6.25-3.94,1.21-1.01.73-1.37,1.48-1.89,2.11-.95,1.14-2.82,2.32-6.88,2.37"/>
    <path class="cls-5" d="m776.59,181.83c-1.09.03-2.6.25-3.94,1.21-1.01.73-1.37,1.48-1.89,2.11-.95,1.14-2.82,2.32-6.88,2.37"/>
    <path class="cls-5" d="m776.49,179.83c-1.09.03-2.6.25-3.94,1.21-1.01.73-1.37,1.48-1.89,2.11-.95,1.14-2.82,2.32-6.88,2.37"/>
    <path class="cls-5" d="m776.38,177.83c-1.09.03-2.6.25-3.94,1.21-1.01.73-1.37,1.48-1.89,2.11-.95,1.14-2.82,2.32-6.88,2.37"/>
    <path class="cls-5" d="m776.27,175.83c-1.09.03-2.6.25-3.94,1.21-1.01.73-1.37,1.48-1.89,2.11-.95,1.14-2.82,2.32-6.88,2.37"/>
    <path class="cls-5" d="m776.16,173.84c-1.09.03-2.6.25-3.94,1.21-1.01.73-1.37,1.48-1.89,2.11-.95,1.14-2.82,2.32-6.88,2.37"/>
    <path class="cls-5" d="m776.05,171.84c-1.09.03-2.6.25-3.94,1.21-1.01.73-1.37,1.48-1.89,2.11-.95,1.14-2.82,2.32-6.88,2.37"/>
    <path class="cls-5" d="m775.95,169.84c-1.09.03-2.6.25-3.94,1.21-1.01.73-1.37,1.48-1.89,2.11-.95,1.14-2.82,2.32-6.88,2.37"/>
    <path class="cls-5" d="m775.84,167.85c-1.09.03-2.6.25-3.94,1.21-1.01.73-1.37,1.48-1.89,2.11-.95,1.14-2.82,2.32-6.88,2.37"/>
    <path class="cls-5" d="m775.73,165.85c-1.09.03-2.6.25-3.94,1.21-1.01.73-1.37,1.48-1.89,2.11-.95,1.14-2.82,2.32-6.88,2.37"/>
    <path class="cls-5" d="m775.62,163.85c-1.09.03-2.6.25-3.94,1.21-1.01.73-1.37,1.48-1.89,2.11-.95,1.14-2.82,2.32-6.88,2.37"/>
    <path class="cls-5" d="m775.51,161.86c-1.09.03-2.6.25-3.94,1.21-1.01.73-1.37,1.48-1.89,2.11-.95,1.14-2.82,2.32-6.88,2.37"/>
    <path class="cls-5" d="m775.41,159.86c-1.09.03-2.6.25-3.94,1.21-1.01.73-1.37,1.48-1.89,2.11-.95,1.14-2.82,2.32-6.88,2.37"/>
    <path class="cls-5" d="m775.3,157.86c-1.09.03-2.6.25-3.94,1.21-1.01.73-1.37,1.48-1.89,2.11-.95,1.14-2.82,2.32-6.88,2.37"/>
    <path class="cls-5" d="m775.19,155.86c-1.09.03-2.6.25-3.94,1.21-1.01.73-1.37,1.48-1.89,2.11-.95,1.14-2.82,2.32-6.88,2.37"/>
    <path class="cls-5" d="m775.08,153.87c-1.09.03-2.6.25-3.94,1.21-1.01.73-1.37,1.48-1.89,2.11-.95,1.14-2.82,2.32-6.88,2.37"/>
    <path class="cls-5" d="m774.97,151.87c-1.09.03-2.6.25-3.94,1.21-1.01.73-1.37,1.48-1.89,2.11-.95,1.14-2.82,2.32-6.88,2.37"/>
    <path class="cls-5" d="m774.87,149.87c-1.09.03-2.6.25-3.94,1.21-1.01.73-1.37,1.48-1.89,2.11-.95,1.14-2.82,2.32-6.88,2.37"/>
    <path class="cls-5" d="m774.76,147.88c-1.09.03-2.6.25-3.94,1.21-1.01.73-1.37,1.48-1.89,2.11-.95,1.14-2.82,2.32-6.88,2.37"/>
    <path class="cls-5" d="m774.65,145.88c-1.09.03-2.6.25-3.94,1.21-1.01.73-1.37,1.48-1.89,2.11-.95,1.14-2.82,2.32-6.88,2.37"/>
    <path class="cls-5" d="m774.54,143.88c-1.09.03-2.6.25-3.94,1.21-1.01.73-1.37,1.48-1.89,2.11-.95,1.14-2.82,2.32-6.88,2.37"/>
    <path class="cls-5" d="m774.44,141.88c-1.09.03-2.6.25-3.94,1.21-1.01.73-1.37,1.48-1.89,2.11-.95,1.14-2.82,2.32-6.88,2.37"/>
    <path class="cls-5" d="m774.33,139.89c-1.09.03-2.6.25-3.94,1.21-1.01.73-1.37,1.48-1.89,2.11-.95,1.14-2.82,2.32-6.88,2.37"/>
    <path class="cls-5" d="m774.22,137.89c-1.09.03-2.6.25-3.94,1.21-1.01.73-1.37,1.48-1.89,2.11-.95,1.14-2.82,2.32-6.88,2.37"/>
    <path class="cls-5" d="m774.11,135.89c-1.09.03-2.6.25-3.94,1.21-1.01.73-1.37,1.48-1.89,2.11-.95,1.14-2.82,2.32-6.88,2.37"/>
    <path class="cls-5" d="m774,133.9c-1.09.03-2.6.25-3.94,1.21-1.01.73-1.37,1.48-1.89,2.11-.95,1.14-2.82,2.32-6.88,2.37"/>
    <path class="cls-5" d="m773.9,131.9c-1.09.03-2.6.25-3.94,1.21-1.01.73-1.37,1.48-1.89,2.11-.95,1.14-2.82,2.32-6.88,2.37"/>
    <path class="cls-5" d="m773.79,129.9c-1.09.03-2.6.25-3.94,1.21-1.01.73-1.37,1.48-1.89,2.11-.95,1.14-2.82,2.32-6.88,2.37"/>
    <path class="cls-5" d="m773.68,127.9c-1.09.03-2.6.25-3.94,1.21-1.01.73-1.37,1.48-1.89,2.11-.95,1.14-2.82,2.32-6.88,2.37"/>
    <path class="cls-5" d="m773.57,125.91c-1.09.03-2.6.25-3.94,1.21-1.01.73-1.37,1.48-1.89,2.11-.95,1.14-2.82,2.32-6.88,2.37"/>
    <path class="cls-5" d="m773.46,123.91c-1.09.03-2.6.25-3.94,1.21-1.01.73-1.37,1.48-1.89,2.11-.95,1.14-2.82,2.32-6.88,2.37"/>
    <path class="cls-5" d="m773.36,121.91c-1.09.03-2.6.25-3.94,1.21-1.01.73-1.37,1.48-1.89,2.11-.95,1.14-2.82,2.32-6.88,2.37"/>
    <path class="cls-5" d="m773.25,119.92c-1.09.03-2.6.25-3.94,1.21-1.01.73-1.37,1.48-1.89,2.11-.95,1.14-2.82,2.32-6.88,2.37"/>
    <path class="cls-5" d="m773.14,117.92c-1.09.03-2.6.25-3.94,1.21-1.01.73-1.37,1.48-1.89,2.11-.95,1.14-2.82,2.32-6.88,2.37"/>
    <path class="cls-5" d="m773.03,115.92c-1.09.03-2.6.25-3.94,1.21-1.01.73-1.37,1.48-1.89,2.11-.95,1.14-2.82,2.32-6.88,2.37"/>
    <path class="cls-5" d="m772.92,113.93c-1.09.03-2.6.25-3.94,1.21-1.01.73-1.37,1.48-1.89,2.11-.95,1.14-2.82,2.32-6.88,2.37"/>
    <path class="cls-5" d="m772.82,111.93c-1.09.03-2.6.25-3.94,1.21-1.01.73-1.37,1.48-1.89,2.11-.95,1.14-2.82,2.32-6.88,2.37"/>
    <path class="cls-3" d="m775,193c0-1-4-65-5-81,.34-.61,1.24-2.01,3-3,1.7-.95,3.3-1.01,4-1l87-2c.22-.03,1.81-.18,3,1,.76.76.95,1.66,1,2l9,83c-.31.49-.93,1.32-2,2-1.23.78-2.41.95-3,1l-90,3c-1,0-1.17.41-4-1-2-1-3-3.94-3-4Z"/>
  </g>
  <g id="Clock">
    <path class="cls-7" d="m877.5,494.53l-78.8,1.16c-4.69,0-8.5-4.06-8.5-9.06l-2.18-37.58c0-5,3.8-9.06,8.5-9.06h77.5c4.69,0,8.71,6.6,8.71,11.6l3.27,33.87c0,5-3.8,9.06-8.5,9.06Z"/>
    <path class="cls-1" d="m875.96,489.94l-74.51,1.06c-4.44,0-8.04-3.71-8.04-8.29l-2.06-34.41c0-4.58,3.6-8.29,8.04-8.29h73.29c4.44,0,8.24,6.04,8.24,10.62l3.09,31.02c0,4.58-3.6,8.29-8.04,8.29Z"/>
    <path class="cls-6" d="m877.19,483l-72.39,1c-4.31,0-7.81-3.5-7.81-7.81l-2-32.39c0-4.31,3.5-7.81,7.81-7.81h71.19c4.31,0,8,5.69,8,10l3,29.19c0,4.31-3.5,7.81-7.81,7.81Z"/>
  </g>
  <g id="Capacitor">
    <path class="cls-4" d="m983,435c.75-.74,4.91-6.01,5-11,.11-6.37-4.86-9.19-6-10-5.76-4.12-11.23-2.24-12-2-7.37,2.28-9.78,8.32-10,9l-11,26c.01.4.36,6.75,6,10,5.86,3.38,11.75.14,12,0l16-22Z"/>
    <path class="cls-11" d="m969.31,429.47l-12.31,24.19v3.93c.54.36,2.93,1.88,6.15,1.34,3.12-.52,4.9-2.61,5.33-3.14l12.52-22.45v-3.21l-2.09-2.14-9.61,1.47Z"/>
    <ellipse class="cls-6" cx="974" cy="422.5" rx="8" ry="7.5"/>
  </g>
  <g id="RAM">
    <polygon class="cls-2" points="570 131.26 679.96 128.26 684 167.26 570 170.32 570 131.26"/>
    <polyline class="cls-5" points="572.45 155.01 572.53 165.74 572.66 174.79"/>
    <polyline class="cls-5" points="572.45 155.01 572.53 165.74 572.66 174.79"/>
    <polyline class="cls-5" points="574.45 154.99 574.53 165.72 574.66 174.76"/>
    <polyline class="cls-5" points="576.45 154.96 576.53 165.69 576.66 174.73"/>
    <polyline class="cls-5" points="580.45 154.9 580.53 165.63 580.66 174.68"/>
    <polyline class="cls-5" points="578.45 154.93 578.53 165.66 578.66 174.7"/>
    <polyline class="cls-5" points="582.45 154.87 582.53 165.6 582.66 174.65"/>
    <polyline class="cls-5" points="582.45 154.87 582.53 165.6 582.66 174.65"/>
    <polyline class="cls-5" points="584.45 154.84 584.53 165.57 584.66 174.62"/>
    <polyline class="cls-5" points="586.45 154.81 586.53 165.54 586.66 174.59"/>
    <polyline class="cls-5" points="590.45 154.76 590.52 165.49 590.65 174.53"/>
    <polyline class="cls-5" points="588.45 154.78 588.52 165.51 588.65 174.56"/>
    <polyline class="cls-5" points="592.45 154.73 592.52 165.46 592.65 174.5"/>
    <polyline class="cls-5" points="592.45 154.73 592.52 165.46 592.65 174.5"/>
    <polyline class="cls-5" points="594.45 154.7 594.52 165.43 594.65 174.47"/>
    <polyline class="cls-5" points="596.45 154.67 596.52 165.4 596.65 174.45"/>
    <polyline class="cls-5" points="600.43 153.41 600.51 164.14 600.64 173.18"/>
    <polyline class="cls-5" points="598.45 154.64 598.52 165.37 598.65 174.42"/>
    <polyline class="cls-5" points="602.43 153.38 602.51 164.11 602.64 173.15"/>
    <polyline class="cls-5" points="604.43 153.35 604.51 164.08 604.64 173.12"/>
    <polyline class="cls-5" points="606.43 153.32 606.51 164.05 606.64 173.1"/>
    <polyline class="cls-5" points="610.43 153.26 610.51 163.99 610.64 173.04"/>
    <polyline class="cls-5" points="608.43 153.29 608.51 164.02 608.64 173.07"/>
    <polyline class="cls-5" points="612.43 153.23 612.5 163.96 612.64 173.01"/>
    <polyline class="cls-5" points="614.43 153.2 614.5 163.93 614.63 172.98"/>
    <polyline class="cls-5" points="616.43 153.18 616.5 163.91 616.63 172.95"/>
    <polyline class="cls-5" points="620.43 153.12 620.5 163.85 620.63 172.89"/>
    <polyline class="cls-5" points="618.43 153.15 618.5 163.88 618.63 172.92"/>
    <polyline class="cls-5" points="622.43 153.09 622.5 163.82 622.63 172.87"/>
    <polyline class="cls-5" points="624.43 153.06 624.5 163.79 624.63 172.84"/>
    <polyline class="cls-5" points="626.43 153.03 626.5 163.76 626.63 172.81"/>
    <polyline class="cls-5" points="630.43 152.97 630.5 163.7 630.63 172.75"/>
    <polyline class="cls-5" points="628.43 153 628.5 163.73 628.63 172.78"/>
    <polyline class="cls-5" points="632.43 152.95 632.5 163.68 632.63 172.72"/>
    <polyline class="cls-5" points="634.43 152.92 634.5 163.65 634.63 172.69"/>
    <polyline class="cls-5" points="636.43 152.89 636.5 163.62 636.63 172.66"/>
    <polyline class="cls-5" points="640.43 152.83 640.5 163.56 640.63 172.61"/>
    <polyline class="cls-5" points="638.43 152.86 638.5 163.59 638.63 172.64"/>
    <polyline class="cls-5" points="642.43 152.8 642.5 163.53 642.63 172.58"/>
    <polyline class="cls-5" points="644.43 152.77 644.5 163.5 644.63 172.55"/>
    <polyline class="cls-5" points="646.43 152.74 646.5 163.47 646.63 172.52"/>
    <polyline class="cls-5" points="650.43 152.69 650.5 163.42 650.63 172.46"/>
    <polyline class="cls-5" points="648.43 152.72 648.5 163.45 648.63 172.49"/>
    <polyline class="cls-5" points="652.43 152.66 652.5 163.39 652.63 172.43"/>
    <polyline class="cls-5" points="654.43 152.63 654.5 163.36 654.63 172.41"/>
    <polyline class="cls-5" points="656.43 152.6 656.5 163.33 656.63 172.38"/>
    <polyline class="cls-5" points="660.43 152.54 660.5 163.27 660.63 172.32"/>
    <polyline class="cls-5" points="658.43 152.57 658.5 163.3 658.63 172.35"/>
    <polyline class="cls-5" points="662.43 152.51 662.5 163.24 662.63 172.29"/>
    <polyline class="cls-5" points="664.43 152.49 664.5 163.22 664.63 172.26"/>
    <polyline class="cls-5" points="666.43 152.46 666.5 163.19 666.63 172.23"/>
    <polyline class="cls-5" points="670.43 152.4 670.5 163.13 670.63 172.18"/>
    <polyline class="cls-5" points="668.43 152.43 668.5 163.16 668.63 172.2"/>
    <polyline class="cls-5" points="672.43 152.37 672.5 163.1 672.63 172.15"/>
    <polyline class="cls-5" points="674.42 152.34 674.5 163.07 674.63 172.12"/>
    <polyline class="cls-5" points="676.42 152.31 676.5 163.04 676.63 172.09"/>
    <polyline class="cls-5" points="680.42 152.26 680.5 162.99 680.63 172.03"/>
    <polyline class="cls-5" points="678.42 152.28 678.5 163.01 678.63 172.06"/>
    <polyline class="cls-5" points="682.42 152.23 682.5 162.96 682.63 172"/>
    <polygon class="cls-10" points="571 126 680 123 684 162 571 165.06 571 126"/>
  </g>
</svg>